PathFileType	4	(X/Y/Z)	RBDS03\RBDS03runT35.trc
DataRate	CameraRate	NumFrames	NumMarkers	Units	OrigDataRate	OrigDataStartFrame	OrigNumFrames
150.000000	150.000000	5	33	mm	150.000000	562	4500
Frame#	Time	L.ASIS			L.Heel.Bottom			L.Heel.Lateral			L.Heel.Top			L.Iliac.Crest			L.MT1			L.MT5			L.PSIS			L.Shank.Bottom.Lateral			L.Shank.Bottom.Medial			L.Shank.Top.Lateral			L.Shank.Top.Medial			L.Thigh.Bottom.Lateral			L.Thigh.Bottom.Medial			L.Thigh.Top.Lateral			L.Thigh.Top.Medial			R.ASIS			R.ASY			R.Heel.Bottom			R.Heel.Lateral			R.Heel.Top			R.Iliac.Crest			R.MT1			R.MT5			R.PSIS			R.Shank.Bottom.Lateral			R.Shank.Bottom.Medial			R.Shank.Top.Lateral			R.Shank.Top.Medial			R.Thigh.Bottom.Lateral			R.Thigh.Bottom.Medial			R.Thigh.Top.Lateral			R.Thigh.Top.Medial			
		X1	Y1	Z1	X2	Y2	Z2	X3	Y3	Z3	X4	Y4	Z4	X5	Y5	Z5	X6	Y6	Z6	X7	Y7	Z7	X8	Y8	Z8	X9	Y9	Z9	X10	Y10	Z10	X11	Y11	Z11	X12	Y12	Z12	X13	Y13	Z13	X14	Y14	Z14	X15	Y15	Z15	X16	Y16	Z16	X17	Y17	Z17	X18	Y18	Z18	X19	Y19	Z19	X20	Y20	Z20	X21	Y21	Z21	X22	Y22	Z22	X23	Y23	Z23	X24	Y24	Z24	X25	Y25	Z25	X26	Y26	Z26	X27	Y27	Z27	X28	Y28	Z28	X29	Y29	Z29	X30	Y30	Z30	X31	Y31	Z31	X32	Y32	Z32	X33	Y33	Z33	

563	3.746666666666667	2337.347033659794	1075.357878121269	984.5578669990438	1639.431600170916	305.8392431725319	1038.206501442876	1663.172062620355	279.7305515740507	991.2718904991293	1685.749659755856	325.086799247844	1029.900861018788	2289.255573719118	1153.281791840835	935.7182440719018	1789.878694832003	137.2315363216131	1078.612419785346	1744.375193481877	143.9777965516676	977.427757001657	2166.456344484247	1129.424517393436	1034.89144205132	1782.167880891127	341.6674244013932	971.405206941723	1748.594486236418	368.1647754252988	1005.169472273103	1824.051852982562	408.995721583493	958.7283109009621	1790.703721052559	435.9471827082487	991.1557412181038	2059.622375129933	692.9646513872804	955.3869695715371	2008.320615072693	727.1820648621286	995.5712589034284	2107.909308426329	788.946200292151	933.4886864292041	2057.142645487369	822.9821477477392	968.4630019433874	2318.962766824004	1093.289025323994	1187.417019828042	12353064.66624761	-340305.1694147391	-1089793.44829005	2327.686802359657	101.6786440764266	1090.850595526088	2357.682241331368	116.0218485756837	1143.534372089983	2339.9240157971	148.79180122844	1096.731047139074	2262.068890450914	1181.793055130217	1227.913642195269	2542.888232892813	102.2396155968356	1079.520648965788	2507.481274009867	86.41999751853271	1188.359937631675	2161.692178275713	1133.636987608389	1119.959621411901	2385.104785411661	226.2429919514767	1164.102796132457	2357.67976785071	235.9166275219569	1121.014508437341	2376.258848647824	307.7827535778085	1185.052236933014	2348.705551385995	313.9334594414456	1139.696421667537	2394.675271219213	695.5795699212524	1230.374982097156	2335.750747680197	664.4402528881217	1200.699328545963	2333.881090881011	787.5688810716312	1248.665563111113	2280.690562766226	758.5534565356347	1217.171012924852	
564	3.753333333333333	2339.058061699272	1077.431484140179	984.4809116286174	1628.071187156316	321.4211995770575	1038.864679528807	1650.793746528168	294.667094743511	991.8034666454595	1674.785417223126	339.4544003023188	1030.205891692586	2290.164064188606	1155.578099202095	935.8089220461167	1774.653865768539	149.5203033305093	1078.707748774191	1728.603483121805	156.9994430592084	977.8429016661113	2167.87371805121	1131.484397609388	1034.462286415042	1771.828219443223	353.485963809085	971.4912290832685	1739.480961805243	381.0113250431762	1005.635602369305	1815.990517780499	419.3612868236351	958.8032089870024	1783.826120890831	447.3467290342988	991.5170558566381	2060.966828716172	695.115918344978	954.4938668652508	2009.732480414311	729.69637658845	994.3674122672087	2109.968768670927	790.8442783612894	932.580494095879	2058.897875738943	825.2091913901467	966.7932205767205	2319.536821887038	1093.970171117835	1187.665545024251	12598538.67486431	-346966.5010490801	-1111374.750477899	2350.012468994667	92.27753497142218	1090.940035434793	2378.918654025027	108.3041039109666	1143.758323772869	2358.856149336379	140.0590353430317	1097.17103975411	2262.148249564358	1182.050869054934	1228.157825708684	2564.718666687856	108.2304112630193	1079.913450682558	2530.326525778616	89.05269738121935	1188.654204210337	2162.520048744661	1134.689409482997	1119.624591795304	2398.728914126146	221.6683513063044	1164.444000324763	2370.956787384095	229.7911297345173	1121.144092533345	2385.18290313555	302.5261238516198	1185.160270326669	2357.579144436928	307.2509452961501	1139.686377409231	2387.837317360074	691.3586153690134	1230.476112057458	2329.151506437028	661.9272415980224	1198.859573273154	2328.602671828711	784.2422380562928	1248.855196120407	2275.543315116936	756.7911050146871	1215.928010863234	
565	3.76	2340.466964759036	1079.034986965021	984.2891816867509	1617.337334200326	337.3175541668048	1039.566374206006	1639.001335347704	309.8815510115064	992.3928284589034	1664.469332336711	354.0152545600997	1030.608930627647	2290.564541752889	1157.390463594835	935.8001348940941	1759.511666770801	161.9131634293875	1079.135009996515	1713.064207216882	170.2658022321847	978.4993507541772	2168.979816206118	1132.868445808523	1034.115359324001	1762.049134275017	365.2417016033844	971.7166451140675	1731.142312600832	393.8175535873075	1006.353974848429	1808.623606453068	429.4438174410053	958.9936411067932	1777.870248288677	458.4996154754135	992.1035136074014	2063.268760683306	695.9554993625093	953.4018758294402	2012.031684082945	730.6450193636265	993.1086860363878	2112.543883104368	791.6611467622771	931.5598410904998	2061.04000877417	826.1007648038942	965.0816312228437	2319.970712293604	1094.133833275363	1187.907449303156	12847243.8055576	-353713.9427213023	-1133238.769424118	2370.504204729892	84.35661157800715	1091.189161307641	2398.315727661203	101.9458184372105	1144.107222978409	2376.050980335692	132.5830641221422	1097.742683645388	2261.97709744385	1181.376872561519	1228.389639088621	2583.863420754543	115.0772013516826	1080.40324942646	2550.640867699334	92.77773957075631	1189.066942509462	2163.088964303865	1135.024428452278	1119.359513475807	2410.866426374057	218.0400177561167	1164.921183324022	2382.716141261087	224.6299484121667	1121.51682325281	2393.023206482831	298.0736698323591	1185.358687981939	2365.294278513843	301.3979255306066	1139.872164839971	2380.990926074571	686.9856085395344	1230.583867778147	2322.590675757672	659.3382369890244	1196.93614893665	2323.350588130323	780.7243992374162	1249.152746592178	2270.472274618033	754.9033098828222	1214.734268550929	
566	3.766666666666667	2341.594705521797	1080.175932219121	984.0140270761106	1607.521186893911	353.5752408761145	1040.255906250481	1628.050629633333	325.4095952361196	992.9816770665184	1655.093659751851	368.7807451256589	1031.045850162003	2290.549236696359	1158.719638588541	935.6981608959663	1744.613929439848	174.3543109473145	1079.79091880296	1697.913381546391	183.7349362911874	979.3054833471651	2169.776726630603	1133.567277588039	1033.820494740152	1753.044525052738	376.9023663250283	972.0244489978136	1723.776919102398	406.5045162322446	1007.261615771782	1802.118212274733	439.2164938955431	959.2570232013732	1772.986655330955	469.3301335020687	992.8709316924808	2066.422391295909	695.5243450915721	952.1459437609305	2015.129581732707	730.0581906306827	991.8630045763601	2115.525123725594	791.4306713463967	930.4691024634224	2063.513698925779	825.6875047986308	963.4523043013608	2320.257315474569	1093.801870338288	1188.124534071585	13099201.18537914	-360548.0464520177	-1155387.344663903	2388.766398788701	77.73352237644198	1091.55571508365	2415.520207284489	96.76443219470752	1144.530050371248	2391.187734964435	126.2136305441602	1098.38740446261	2261.630481981846	1179.875500371466	1228.573489696096	2600.099251890008	122.2945097027197	1080.890852645937	2568.162422724635	97.19587959257099	1189.506939951958	2163.412014754671	1134.687756110532	1119.131421013377	2421.351585527203	215.1898135464827	1165.471566813118	2392.776449708952	220.2852644692598	1122.083779929209	2399.682467802004	294.3316207155293	1185.615114874658	2371.738244257494	296.2861378528887	1140.222059182008	2374.269664211678	682.6299648557456	1230.624375967937	2316.162957079907	656.7611133598454	1195.002840532555	2318.226122558769	777.1901134930657	1249.437337319431	2265.547582007565	752.9839523577102	1213.584636742461	
567	3.773333333333333	2342.454710800835	1080.865733522804	983.6779685819397	1598.908664555591	370.2058302780051	1040.899308283351	1618.195793296273	341.27008613435	993.5312559170617	1646.932614518454	383.7406528778054	1031.470500598286	2290.202287980727	1159.56091910201	935.5112804135247	1730.14620389739	186.8159452205381	1080.549169096727	1683.327274154633	197.4025810101951	980.1593065452712	2170.268627267656	1133.573720947973	1033.541953393144	1745.024561665457	388.4440839144823	972.3642490476407	1717.573204636697	419.0066293379516	1008.29392576463	1796.643227963237	448.6624000215442	959.5533649333295	1769.320506725237	479.7755118708776	993.7713238541122	2070.324943967634	693.8897703103513	950.7667660391331	2018.94573986327	728.0045577463133	990.6929525750047	2118.822218730576	790.2022260108835	929.3490404330665	2066.287084528684	824.0261026569287	962.0188409415165	2320.391935567241	1093.005477852282	1188.298235963069	13354431.94138057	-367469.3642618379	-1177822.315732448	2404.431725449761	72.172917479975	1092.0045841039	2430.2124934986	92.52166221514049	1144.98409028807	2403.975856653173	120.7544556544059	1099.05653247593	2261.191226645388	1177.678059547289	1228.685987463505	2613.265723856498	129.3454226970551	1081.272836610596	2582.694458810738	101.8411758732238	1189.879567998977	2163.500643857424	1133.730205278438	1118.902097015598	2430.035530160732	212.9041254701446	1166.036412468828	2400.981231202496	216.5722485746768	1122.791498365214	2405.070284998753	291.1607645232818	1185.900812572006	2376.814799440227	291.7914033514574	1140.699794840917	2367.798150620691	678.4259978747582	1230.533746535479	2309.960387672315	654.2474134493373	1193.126395976657	2313.319775372391	773.7761362022085	1249.591465077064	2260.828988256566	751.0889908163018	1212.466046486288	
